<?xml version="1.0" encoding="UTF-8" standalone="no"?><!DOCTYPE svg PUBLIC "-//W3C//DTD SVG 1.1//EN"
        "http://www.w3.org/Graphics/SVG/1.1/DTD/svg11.dtd">
<svg width="100%" height="100%" viewBox="0 0 146 146" version="1.1" xmlns="http://www.w3.org/2000/svg"
     style="fill-rule:evenodd;clip-rule:evenodd;">
    <path id="path12" d="M146,134l-134,-134l42,0l92,92l0,42Z" style="fill-rule:nonzero;"/>
    <g>
        <path d="M39,16.098l7.772,-8.098l5.463,5.243l-0.917,0.956l-4.392,-4.215l-2.406,2.508l3.8,3.647l-0.917,0.956l-3.801,-3.647l-3.53,3.679l-1.072,-1.029Z"
              style="fill:#fff;fill-rule:nonzero;"/>
        <path d="M48.173,19.267c1.043,-1.086 2.117,-1.601 3.223,-1.545c0.921,0.05 1.745,0.423 2.47,1.119c0.807,0.774 1.213,1.671 1.217,2.691c0.005,1.02 -0.44,1.995 -1.334,2.927c-0.724,0.755 -1.408,1.24 -2.049,1.455c-0.642,0.216 -1.294,0.235 -1.957,0.06c-0.662,-0.176 -1.249,-0.51 -1.761,-1.001c-0.821,-0.788 -1.232,-1.689 -1.233,-2.701c-0.001,-1.013 0.473,-2.014 1.424,-3.005Zm1.022,0.981c-0.721,0.751 -1.097,1.471 -1.128,2.159c-0.031,0.688 0.202,1.271 0.699,1.748c0.494,0.474 1.085,0.68 1.773,0.619c0.688,-0.061 1.402,-0.476 2.14,-1.246c0.697,-0.726 1.059,-1.433 1.089,-2.123c0.029,-0.691 -0.202,-1.271 -0.691,-1.741c-0.498,-0.477 -1.089,-0.687 -1.773,-0.629c-0.685,0.057 -1.388,0.461 -2.109,1.213Z"
              style="fill:#fff;fill-rule:nonzero;"/>
        <path d="M52.009,28.583l5.63,-5.866l0.895,0.858l-0.854,0.89c0.628,-0.197 1.102,-0.269 1.423,-0.216c0.32,0.053 0.597,0.191 0.829,0.413c0.335,0.322 0.573,0.756 0.714,1.301l-1.228,0.594c-0.105,-0.377 -0.279,-0.682 -0.522,-0.915c-0.217,-0.209 -0.475,-0.331 -0.774,-0.366c-0.298,-0.035 -0.596,0.028 -0.892,0.189c-0.45,0.247 -0.876,0.581 -1.279,1.001l-2.948,3.071l-0.994,-0.954Z"
              style="fill:#fff;fill-rule:nonzero;"/>
        <path d="M55.793,32.215l7.772,-8.099l0.994,0.955l-4.432,4.618l4.644,-0.128l1.287,1.235l-4.332,0.024l-1.072,6.06l-1.226,-1.177l0.939,-4.86l-1.348,0l-2.232,2.326l-0.994,-0.954Z"
              style="fill:#fff;fill-rule:nonzero;"/>
        <path d="M64.587,40.654l5.63,-5.866l0.89,0.853l-0.79,0.824c0.46,-0.111 0.926,-0.107 1.4,0.011c0.473,0.119 0.905,0.365 1.296,0.74c0.434,0.417 0.704,0.849 0.809,1.296c0.105,0.448 0.059,0.888 -0.138,1.322c1.121,-0.24 2.054,-0.003 2.798,0.711c0.582,0.559 0.874,1.149 0.878,1.772c0.004,0.623 -0.316,1.269 -0.959,1.939l-3.865,4.027l-0.989,-0.949l3.547,-3.695c0.382,-0.398 0.624,-0.715 0.728,-0.952c0.103,-0.237 0.121,-0.49 0.055,-0.759c-0.067,-0.27 -0.215,-0.514 -0.443,-0.733c-0.413,-0.396 -0.887,-0.587 -1.423,-0.575c-0.536,0.013 -1.093,0.322 -1.673,0.926l-3.271,3.408l-0.994,-0.954l3.658,-3.812c0.424,-0.442 0.661,-0.851 0.711,-1.227c0.05,-0.377 -0.109,-0.742 -0.477,-1.095c-0.28,-0.269 -0.61,-0.444 -0.989,-0.524c-0.378,-0.081 -0.757,-0.031 -1.136,0.15c-0.379,0.181 -0.825,0.539 -1.337,1.073l-2.922,3.044l-0.994,-0.955Z"
              style="fill:#fff;fill-rule:nonzero;"/>
        <path d="M79.84,51.664l0.906,1.113c-0.738,0.445 -1.486,0.622 -2.242,0.533c-0.756,-0.089 -1.475,-0.46 -2.156,-1.114c-0.859,-0.824 -1.285,-1.741 -1.281,-2.752c0.005,-1.011 0.465,-1.993 1.38,-2.947c0.947,-0.987 1.936,-1.509 2.968,-1.566c1.031,-0.058 1.952,0.303 2.762,1.08c0.784,0.753 1.169,1.635 1.154,2.646c-0.016,1.011 -0.488,2.001 -1.418,2.969c-0.056,0.059 -0.143,0.146 -0.26,0.26l-4.375,-4.198c-0.581,0.679 -0.873,1.348 -0.874,2.005c-0.001,0.657 0.244,1.22 0.734,1.69c0.364,0.35 0.767,0.553 1.209,0.609c0.441,0.056 0.939,-0.053 1.493,-0.328Zm-1.722,-4.741l3.276,3.144c0.429,-0.536 0.659,-1.026 0.69,-1.471c0.051,-0.687 -0.176,-1.273 -0.681,-1.757c-0.456,-0.438 -0.987,-0.654 -1.591,-0.647c-0.605,0.007 -1.169,0.251 -1.694,0.731Z"
              style="fill:#fff;fill-rule:nonzero;"/>
        <path d="M85.891,55.465c1.043,-1.086 2.117,-1.601 3.223,-1.544c0.921,0.049 1.745,0.422 2.47,1.118c0.807,0.774 1.212,1.671 1.217,2.691c0.005,1.02 -0.44,1.995 -1.334,2.927c-0.725,0.755 -1.408,1.24 -2.05,1.456c-0.641,0.215 -1.293,0.235 -1.956,0.059c-0.662,-0.176 -1.249,-0.51 -1.761,-1.001c-0.822,-0.788 -1.233,-1.688 -1.234,-2.701c-0.001,-1.013 0.474,-2.014 1.425,-3.005Zm1.022,0.981c-0.721,0.751 -1.097,1.471 -1.128,2.159c-0.031,0.689 0.202,1.271 0.699,1.748c0.494,0.474 1.085,0.68 1.773,0.619c0.688,-0.061 1.402,-0.476 2.14,-1.246c0.697,-0.725 1.059,-1.433 1.088,-2.123c0.029,-0.69 -0.201,-1.27 -0.691,-1.741c-0.497,-0.477 -1.088,-0.687 -1.772,-0.629c-0.685,0.057 -1.388,0.462 -2.109,1.213Z"
              style="fill:#fff;fill-rule:nonzero;"/>
        <path d="M89.738,64.792l5.63,-5.867l0.895,0.859l-0.801,0.834c1.05,-0.231 1.981,0.044 2.795,0.826c0.354,0.339 0.618,0.714 0.792,1.126c0.175,0.411 0.237,0.791 0.186,1.139c-0.05,0.347 -0.182,0.691 -0.396,1.031c-0.139,0.22 -0.43,0.56 -0.872,1.02l-3.462,3.607l-0.994,-0.954l3.425,-3.569c0.388,-0.405 0.64,-0.745 0.756,-1.02c0.115,-0.275 0.131,-0.567 0.049,-0.875c-0.082,-0.309 -0.256,-0.591 -0.521,-0.845c-0.423,-0.407 -0.918,-0.623 -1.483,-0.649c-0.566,-0.027 -1.209,0.336 -1.93,1.087l-3.075,3.204l-0.994,-0.954Z"
              style="fill:#fff;fill-rule:nonzero;"/>
        <path d="M106.138,74.429l0.912,-0.95l3.435,3.287l-2.884,3.005c-0.929,-0.086 -1.775,-0.291 -2.538,-0.617c-0.763,-0.325 -1.44,-0.771 -2.029,-1.336c-0.795,-0.764 -1.355,-1.628 -1.678,-2.592c-0.323,-0.964 -0.341,-1.928 -0.054,-2.891c0.287,-0.962 0.813,-1.841 1.576,-2.637c0.756,-0.788 1.627,-1.365 2.612,-1.732c0.986,-0.367 1.947,-0.419 2.883,-0.157c0.937,0.263 1.809,0.781 2.615,1.555c0.586,0.562 1.024,1.165 1.315,1.809c0.292,0.643 0.409,1.264 0.353,1.86c-0.057,0.597 -0.276,1.235 -0.659,1.915l-1.222,-0.663c0.275,-0.529 0.435,-0.998 0.481,-1.407c0.045,-0.409 -0.031,-0.845 -0.23,-1.308c-0.199,-0.464 -0.503,-0.892 -0.912,-1.284c-0.49,-0.47 -0.985,-0.802 -1.485,-0.995c-0.501,-0.194 -0.977,-0.275 -1.43,-0.242c-0.452,0.033 -0.878,0.136 -1.279,0.311c-0.687,0.303 -1.312,0.747 -1.873,1.332c-0.693,0.722 -1.149,1.446 -1.366,2.17c-0.218,0.725 -0.203,1.433 0.046,2.125c0.249,0.691 0.64,1.293 1.174,1.806c0.464,0.445 1.003,0.79 1.616,1.036c0.614,0.246 1.132,0.377 1.554,0.393l1.448,-1.508l-2.381,-2.285Z"
              style="fill:#fff;fill-rule:nonzero;"/>
        <path d="M114.653,75.343l1.097,-1.144l0.994,0.954l-1.097,1.144l-0.994,-0.954Zm-6.675,6.954l5.63,-5.866l0.995,0.954l-5.631,5.866l-0.994,-0.954Z"
              style="fill:#fff;fill-rule:nonzero;"/>
        <path d="M113.511,85.898l-0.7,1.016c-0.336,-0.209 -0.615,-0.42 -0.836,-0.632c-0.361,-0.347 -0.586,-0.672 -0.675,-0.977c-0.089,-0.305 -0.085,-0.59 0.012,-0.853c0.098,-0.264 0.433,-0.694 1.005,-1.291l3.239,-3.375l-0.729,-0.7l0.742,-0.773l0.729,0.7l1.395,-1.453l1.561,0.352l-1.967,2.049l1,0.96l-0.742,0.773l-1,-0.959l-3.292,3.43c-0.272,0.284 -0.43,0.483 -0.473,0.597c-0.042,0.115 -0.047,0.234 -0.014,0.358c0.033,0.124 0.124,0.257 0.271,0.398c0.11,0.106 0.268,0.233 0.474,0.38Z"
              style="fill:#fff;fill-rule:nonzero;"/>
        <path d="M113.789,87.874l7.772,-8.098l1.072,1.029l-3.192,3.325l4.21,4.04l3.191,-3.326l1.072,1.029l-7.772,8.098l-1.072,-1.028l3.664,-3.818l-4.21,-4.039l-3.663,3.817l-1.072,-1.029Z"
              style="fill:#fff;fill-rule:nonzero;"/>
        <path d="M125.644,99.251l0.827,-0.862c-1.093,0.225 -2.032,-0.039 -2.816,-0.792c-0.346,-0.332 -0.606,-0.708 -0.779,-1.129c-0.172,-0.421 -0.235,-0.801 -0.188,-1.141c0.047,-0.341 0.181,-0.685 0.401,-1.032c0.147,-0.234 0.423,-0.563 0.83,-0.986l3.488,-3.635l0.995,0.954l-3.123,3.254c-0.498,0.519 -0.814,0.888 -0.947,1.107c-0.188,0.322 -0.252,0.655 -0.193,0.998c0.06,0.344 0.238,0.659 0.537,0.945c0.298,0.286 0.651,0.478 1.059,0.576c0.408,0.099 0.793,0.068 1.155,-0.091c0.361,-0.159 0.782,-0.489 1.263,-0.99l3.016,-3.143l0.994,0.954l-5.63,5.867l-0.889,-0.854Z"
              style="fill:#fff;fill-rule:nonzero;"/>
        <path d="M129.008,102.48l-0.923,-0.886l7.772,-8.098l0.995,0.955l-2.773,2.889c0.925,-0.124 1.714,0.127 2.366,0.752c0.361,0.347 0.632,0.747 0.815,1.202c0.183,0.455 0.252,0.914 0.207,1.377c-0.045,0.463 -0.187,0.937 -0.426,1.422c-0.239,0.485 -0.562,0.939 -0.968,1.362c-0.965,1.006 -1.959,1.544 -2.983,1.616c-1.024,0.071 -1.884,-0.227 -2.58,-0.895c-0.692,-0.664 -0.958,-1.475 -0.797,-2.431l-0.705,0.735Zm2.846,-2.988c-0.675,0.703 -1.067,1.303 -1.176,1.8c-0.178,0.812 0,1.475 0.534,1.987c0.435,0.417 0.991,0.589 1.67,0.516c0.679,-0.074 1.378,-0.485 2.095,-1.232c0.735,-0.766 1.126,-1.477 1.172,-2.133c0.046,-0.657 -0.146,-1.191 -0.577,-1.605c-0.435,-0.417 -0.992,-0.589 -1.671,-0.515c-0.679,0.073 -1.361,0.467 -2.047,1.182Z"
              style="fill:#fff;fill-rule:nonzero;"/>
    </g>
    <path id="path44" d="M52,0l94,94m-132,-94l132,132"
          style="fill:none;fill-rule:nonzero;stroke:#fff;stroke-opacity:0.95;stroke-width:1px;stroke-dasharray:2,1;"/>
</svg>